# xmcd
#
# Track frame offsets:
#	150
#	19967
#	34496
#	47779
#	64846
#	79311
#	97315
#	112580
#	125449
#	145352
#	164339
#	178014
#	197247
#	210194
#	223093
#	241611
#	260519
#	278525
#	292169
#	306518
#
# Disc length: 4261 seconds
#
# Revision: 0
# Processed by: cddbd v1.5.2PL0 Copyright (c) Steve Scherf et al.
# Submitted via: EasyCDDAExtractor 16.0.6.1
#
DISCID=3410a314
DTITLE=Συλλογικός δίσκος - Τα ρεμπέτικα Α 1850-1922 01 Α
DYEAR=2010
DGENRE=Ρεμπέτικη
TTITLE0=Κατσαρός Γιώργος - Ελληνική απόλαυσις [ζεϊμπέκικο, Ν. Υερσέη 16.06.192
TTITLE0=7]
TTITLE1=Διαμαντίδης Αντώνης ή Νταλγκάς - Έσπασες τα πιάτα [χασάπικο, Αθήνα 11.
TTITLE1=05.1929]
TTITLE2=Ελληνική Εστουδιαντίνα - Ανδριάνα [καλαματιανός, ΚΠολη 1906 ή 1907]
TTITLE3=Παπαγκίκα Μαρίκα - Μπορνοβαλιό [Ν. Υόρκη 06.1927]
TTITLE4=Βιδάλης Γιώργος - Μανάκι μου [ζεϊμπέκικος (απτάλικος), Αθήνα 1925]
TTITLE5=Πυρρής Χαρίλαος - Εβραιοπούλα [συρτός, Ν. Υόρκη 10.01.1929]
TTITLE6=Λυμπερόπουλος Μάριος - Πάλε μεθυσμένος [καλαματιανός, Ν. Υόρκη 08.1917
TTITLE6=]
TTITLE7=Ελληνική Εστουδιαντίνα - Τσίφτε-τέλλη [Σμύρνη 1909]
TTITLE8=Παπαγκίκα Μαρίκα - Το κουτσαβάκι [Ν. Υόρκη 07.1919]
TTITLE9=Καζής Μιλτιάδης - Έχασα μαντήλι [συρτός, Ν. Υόρκη 1928]
TTITLE10=Βιδάλης Γιώργος - Οι μπαγλαμάδες [ρεμπέτικο (ζεϊμπέκικος) Αθήνα 1928]
TTITLE11=Άνευ ερμηνευτού - Λημναίϊκο [ζεϊμπέκικο (οργ.) Δεληγιώργης Γιώργος κα
TTITLE11=ι Τρίο, Ν. Υόρη 24.07.1928]
TTITLE12=Διαμαντίδης Αντώνης ή Νταλγκάς - Από τα μπερδέλια πέφτω [Αθήνα 1931]
TTITLE13=Μενεμενλής Λευτέρης - Αχ μελαχροινό μου [ΚΠολη 10.02.1911]
TTITLE14=Δεληγιώργης Γιώργος - Αλατσατιανή [καρσιλαμάς (αγριλαμάς), Ν. Υόρκη 9
TTITLE14=10.1928]
TTITLE15=Παπαγκίκα Μαρίκα - Όπου δης δυό κυπαρίσσια [ζεϊμπέκικο, Ν. Υόρκη 1923
TTITLE15=]
TTITLE16=Στασινόπουλος Σωτήρης - Γιαρούμπι, γιαρούμπι [Ν. Υόρκη 10.1925]
TTITLE17=Ελληνική Εστουδιαντίνα - Δεν σε θέλω πια [Σμύρνη 1910]
TTITLE18=Διαμαντίδης Αντώνης ή Νταλγκάς - Έλα στ' Ανάπλι [ρεμπέτικο, Αθήνα 192
TTITLE18=8]
TTITLE19=Τσανάκας Γιώργος - Μινόρε μανές [Σμύρνη 1909]
EXTD=
EXTT0=
EXTT1=
EXTT2=
EXTT3=
EXTT4=
EXTT5=
EXTT6=
EXTT7=
EXTT8=
EXTT9=
EXTT10=
EXTT11=
EXTT12=
EXTT13=
EXTT14=
EXTT15=
EXTT16=
EXTT17=
EXTT18=
EXTT19=
PLAYORDER=
